
      <svg data-logo="logo" xmlns="http://www.w3.org/2000/svg" viewBox="0 0 209 43">
        <g id="logogram" transform="translate(0, 1) rotate(0)"><path fill-rule="evenodd" clip-rule="evenodd" d="M20.9053 40.0799C31.951 40.0799 40.9053 31.1256 40.9053 20.0799C40.9053 9.03427 31.951 0.0799561 20.9053 0.0799561C9.85956 0.0799561 0.905273 9.03427 0.905273 20.0799C0.905273 31.1256 9.85956 40.0799 20.9053 40.0799ZM27.1446 9.3968C27.4483 8.31801 26.4014 7.68008 25.4453 8.36125L12.0984 17.8695C11.0615 18.6082 11.2246 20.0799 12.3434 20.0799H15.858V20.0527H22.7078L17.1265 22.022L14.666 30.7631C14.3623 31.8419 15.4091 32.4798 16.3653 31.7986L29.7122 22.2904C30.7491 21.5517 30.5859 20.0799 29.4672 20.0799H24.1374L27.1446 9.3968Z" fill="#F15757"/></g>
        <g id="logotype" transform="translate(47, 8.5)"><path fill="#111111" d="M13.52 26L8.31 26L8.31 0.54L18.24 0.54Q21.14 0.54 23.18 1.56Q25.21 2.59 26.28 4.45Q27.35 6.31 27.35 8.82L27.35 8.82Q27.35 11.34 26.26 13.16Q25.17 14.98 23.12 15.94Q21.06 16.91 18.12 16.91L18.12 16.91L11.38 16.91L11.38 12.69L17.28 12.69Q18.89 12.69 19.91 12.25Q20.94 11.82 21.45 10.95Q21.96 10.09 21.96 8.82L21.96 8.82Q21.96 7.53 21.45 6.65Q20.94 5.77 19.90 5.30Q18.87 4.84 17.26 4.84L17.26 4.84L13.52 4.84L13.52 26ZM28.25 26L22.47 26L16.27 14.41L21.93 14.41L28.25 26ZM37.53 26.38L37.53 26.38Q34.61 26.38 32.49 25.18Q30.37 23.98 29.23 21.78Q28.10 19.57 28.10 16.55L28.10 16.55Q28.10 13.59 29.22 11.37Q30.35 9.15 32.42 7.90Q34.49 6.65 37.27 6.65L37.27 6.65Q39.15 6.65 40.78 7.25Q42.40 7.85 43.63 9.06Q44.86 10.26 45.55 12.07Q46.24 13.88 46.24 16.34L46.24 16.34L46.24 17.78L30.20 17.78L30.20 14.57L43.73 14.57L41.34 15.42Q41.34 13.93 40.89 12.83Q40.43 11.73 39.54 11.12Q38.64 10.52 37.31 10.52L37.31 10.52Q35.99 10.52 35.06 11.13Q34.13 11.75 33.65 12.80Q33.17 13.85 33.17 15.20L33.17 15.20L33.17 17.47Q33.17 19.13 33.73 20.26Q34.28 21.39 35.28 21.95Q36.28 22.51 37.61 22.51L37.61 22.51Q38.52 22.51 39.25 22.26Q39.99 22.00 40.51 21.50Q41.03 20.99 41.31 20.26L41.31 20.26L45.95 21.13Q45.49 22.70 44.35 23.89Q43.20 25.08 41.49 25.73Q39.77 26.38 37.53 26.38ZM55.06 26.38L55.06 26.38Q52.75 26.38 50.98 25.72Q49.20 25.06 48.07 23.80Q46.94 22.55 46.62 20.77L46.62 20.77L51.39 19.95Q51.76 21.28 52.70 21.95Q53.64 22.62 55.21 22.62L55.21 22.62Q56.67 22.62 57.52 22.06Q58.38 21.51 58.38 20.65L58.38 20.65Q58.38 19.90 57.77 19.42Q57.16 18.94 55.92 18.69L55.92 18.69L52.62 18.00Q49.85 17.44 48.48 16.08Q47.11 14.72 47.11 12.58L47.11 12.58Q47.11 10.74 48.12 9.41Q49.13 8.09 50.93 7.37Q52.72 6.65 55.15 6.65L55.15 6.65Q57.40 6.65 59.06 7.28Q60.72 7.90 61.74 9.05Q62.77 10.19 63.11 11.75L63.11 11.75L58.56 12.55Q58.27 11.58 57.44 10.95Q56.62 10.33 55.21 10.33L55.21 10.33Q53.95 10.33 53.10 10.86Q52.24 11.39 52.24 12.26L52.24 12.26Q52.24 12.99 52.80 13.49Q53.35 13.99 54.70 14.26L54.70 14.26L58.14 14.94Q60.91 15.51 62.26 16.78Q63.61 18.05 63.61 20.10L63.61 20.10Q63.61 21.98 62.51 23.39Q61.42 24.80 59.50 25.59Q57.57 26.38 55.06 26.38ZM71.38 26.24L71.38 26.24Q69.40 26.24 67.91 25.38Q66.42 24.51 65.61 22.90Q64.80 21.28 64.80 19.04L64.80 19.04L64.80 6.89L69.93 6.89L69.93 18.16Q69.93 19.93 70.85 20.94Q71.77 21.95 73.38 21.95L73.38 21.95Q74.47 21.95 75.31 21.48Q76.15 21.01 76.62 20.11Q77.09 19.22 77.09 17.95L77.09 17.95L77.09 6.89L82.21 6.89L82.21 26L77.38 26L77.31 21.23L77.60 21.23Q76.85 23.64 75.30 24.94Q73.76 26.24 71.38 26.24ZM89.61 26L84.43 26L84.43 0.54L92.43 0.54L96.57 12.23Q96.82 13.05 97.16 14.34Q97.49 15.64 97.83 17.15Q98.17 18.65 98.47 20.07Q98.77 21.49 98.96 22.53L98.96 22.53L97.95 22.53Q98.14 21.51 98.44 20.10Q98.74 18.69 99.08 17.18Q99.42 15.68 99.76 14.36Q100.09 13.05 100.34 12.23L100.34 12.23L104.41 0.54L112.44 0.54L112.44 26L107.20 26L107.20 13.99Q107.20 13.17 107.23 11.92Q107.27 10.67 107.30 9.23Q107.33 7.78 107.37 6.32Q107.40 4.86 107.42 3.56L107.42 3.56L107.74 3.56Q107.42 4.98 107.03 6.49Q106.63 8.00 106.23 9.42Q105.83 10.84 105.47 12.03Q105.11 13.22 104.86 13.99L104.86 13.99L100.64 26L96.24 26L91.95 13.99Q91.70 13.22 91.34 12.05Q90.98 10.88 90.58 9.46Q90.18 8.04 89.77 6.53Q89.36 5.01 88.98 3.56L88.98 3.56L89.39 3.56Q89.41 4.79 89.44 6.24Q89.48 7.70 89.52 9.16Q89.56 10.62 89.59 11.88Q89.61 13.13 89.61 13.99L89.61 13.99L89.61 26ZM119.98 26.38L119.98 26.38Q118.17 26.38 116.72 25.74Q115.28 25.09 114.45 23.82Q113.62 22.55 113.62 20.65L113.62 20.65Q113.62 19.06 114.21 17.98Q114.80 16.91 115.82 16.26Q116.83 15.61 118.12 15.27Q119.42 14.93 120.83 14.79L120.83 14.79Q122.49 14.62 123.51 14.47Q124.52 14.33 124.99 14.01Q125.46 13.70 125.46 13.08L125.46 13.08L125.46 12.99Q125.46 12.17 125.12 11.61Q124.78 11.05 124.11 10.75Q123.45 10.45 122.47 10.45L122.47 10.45Q121.48 10.45 120.75 10.75Q120.01 11.05 119.55 11.54Q119.09 12.04 118.87 12.65L118.87 12.65L114.17 11.87Q114.66 10.21 115.81 9.05Q116.95 7.88 118.65 7.27Q120.35 6.65 122.47 6.65L122.47 6.65Q124.03 6.65 125.48 7.02Q126.93 7.39 128.09 8.16Q129.24 8.93 129.92 10.16Q130.59 11.39 130.59 13.13L130.59 13.13L130.59 26L125.74 26L125.74 23.35L125.57 23.35Q125.11 24.24 124.34 24.91Q123.57 25.59 122.48 25.98Q121.40 26.38 119.98 26.38ZM121.43 22.77L121.43 22.77Q122.65 22.77 123.56 22.29Q124.47 21.81 124.99 20.99Q125.50 20.17 125.50 19.16L125.50 19.16L125.50 17.10Q125.28 17.27 124.82 17.40Q124.35 17.54 123.79 17.64Q123.23 17.75 122.68 17.83Q122.13 17.92 121.71 17.97L121.71 17.97Q120.77 18.10 120.05 18.41Q119.33 18.72 118.94 19.22Q118.54 19.73 118.54 20.51L118.54 20.51Q118.54 21.25 118.92 21.75Q119.30 22.26 119.94 22.51Q120.58 22.77 121.43 22.77ZM130.85 6.89L142.18 6.89L142.18 10.81L130.85 10.81L130.85 6.89ZM133.48 20.86L133.48 2.35L138.60 2.35L138.60 20.41Q138.60 21.32 139.01 21.75Q139.41 22.19 140.35 22.19L140.35 22.19Q140.64 22.19 141.17 22.11Q141.70 22.04 141.97 21.97L141.97 21.97L142.71 25.81Q141.85 26.07 141.01 26.17Q140.16 26.27 139.39 26.27L139.39 26.27Q136.52 26.27 135.00 24.87Q133.48 23.47 133.48 20.86L133.48 20.86ZM151.86 26.38L151.86 26.38Q148.94 26.38 146.82 25.18Q144.70 23.98 143.57 21.78Q142.43 19.57 142.43 16.55L142.43 16.55Q142.43 13.59 143.56 11.37Q144.69 9.15 146.75 7.90Q148.82 6.65 151.61 6.65L151.61 6.65Q153.49 6.65 155.11 7.25Q156.74 7.85 157.97 9.06Q159.20 10.26 159.89 12.07Q160.58 13.88 160.58 16.34L160.58 16.34L160.58 17.78L144.53 17.78L144.53 14.57L158.07 14.57L155.68 15.42Q155.68 13.93 155.22 12.83Q154.77 11.73 153.87 11.12Q152.98 10.52 151.64 10.52L151.64 10.52Q150.33 10.52 149.40 11.13Q148.46 11.75 147.99 12.80Q147.51 13.85 147.51 15.20L147.51 15.20L147.51 17.47Q147.51 19.13 148.06 20.26Q148.62 21.39 149.62 21.95Q150.62 22.51 151.95 22.51L151.95 22.51Q152.86 22.51 153.59 22.26Q154.33 22.00 154.85 21.50Q155.37 20.99 155.64 20.26L155.64 20.26L160.29 21.13Q159.83 22.70 158.68 23.89Q157.54 25.08 155.82 25.73Q154.10 26.38 151.86 26.38Z"/></g>
        
      </svg>
    